#N canvas 555 389 963 467 10;
#X obj 203 213 pack f f f f f;
#X obj 203 152 bq_coef_peak_BW;
#X obj 203 180 * -1;
#X obj 235 180 * -1;
#X obj 33 280 biquad~;
#X obj 99 281 biquad~;
#X obj 32 23 inlet~;
#X obj 99 24 inlet~;
#X obj 33 390 outlet~;
#X obj 99 391 outlet~;
#X msg 260 71 1 3;
#X obj 260 90 /;
#X obj 203 26 loadbang;
#X obj 203 132 mtof;
#X obj 203 112 + 19.35;
#X obj 203 91 * 4;
#X obj 203 70 \$1;
#X obj 203 49 t b b;
#X msg 385 181 \$2 \$1;
#X obj 385 205 s \$2-preset;
#X obj 385 158 pack f \$1;
#X obj 332 25 inlet;
#X obj 332 49 f;
#X obj 554 40 r \$2-set;
#X obj 552 66 route \$1;
#X obj 641 38 r \$2-load;
#X obj 641 84 tabread \$2-preset;
#X obj 641 60 f \$1;
#X obj 550 140 s \$2-\$1-fader;
#X connect 0 0 5 0;
#X connect 0 0 4 0;
#X connect 1 0 2 0;
#X connect 1 1 3 0;
#X connect 1 2 0 2;
#X connect 1 3 0 3;
#X connect 1 4 0 4;
#X connect 2 0 0 0;
#X connect 3 0 0 1;
#X connect 4 0 8 0;
#X connect 5 0 9 0;
#X connect 6 0 4 0;
#X connect 7 0 5 0;
#X connect 10 0 11 0;
#X connect 11 0 1 1;
#X connect 12 0 17 0;
#X connect 13 0 1 0;
#X connect 14 0 13 0;
#X connect 15 0 14 0;
#X connect 16 0 15 0;
#X connect 17 0 16 0;
#X connect 17 1 10 0;
#X connect 18 0 19 0;
#X connect 20 0 18 0;
#X connect 21 0 22 0;
#X connect 22 0 1 2;
#X connect 22 0 20 0;
#X connect 23 0 24 0;
#X connect 24 0 28 0;
#X connect 25 0 27 0;
#X connect 26 0 28 0;
#X connect 27 0 26 0;
