#N canvas 229 443 596 568 10;
#X obj 158 280 pack f f f f f;
#X obj 158 247 * -1;
#X obj 190 247 * -1;
#X obj 33 320 biquad~;
#X obj 137 319 biquad~;
#X obj 215 137 /;
#X obj 158 73 loadbang;
#X obj 158 199 mtof;
#X obj 158 159 + 19.35;
#X obj 158 138 * 4;
#X obj 158 117 \$1;
#X obj 158 96 t b b;
#X obj 158 219 bq_coef_bp_BW;
#X obj 32 23 receive~ \$2-soundL;
#X obj 135 41 receive~ \$2-soundR;
#X msg 32 543 \$2 \$1;
#X obj 32 523 pack f \$1;
#X obj 234 95 bng 15 250 50 0 empty empty empty 17 7 0 10 -262144 -1
-1;
#X obj 32 563 s \$2-unit;
#X obj 32 401 env~ 65536 2048;
#X obj 32 447 - 100;
#X obj 32 469 max -60;
#X msg 134 545 \$2 \$1;
#X obj 134 525 pack f \$1;
#X obj 134 403 env~ 65536 2048;
#X obj 134 449 - 100;
#X obj 134 471 max -60;
#X obj 134 565 s \$2-unit2;
#X msg 215 118 1 9;
#X obj 268 280 pack f f f f f;
#X obj 268 247 * -1;
#X obj 300 247 * -1;
#X obj 32 347 biquad~;
#X obj 135 345 biquad~;
#X obj 325 137 /;
#X obj 268 73 loadbang;
#X obj 268 199 mtof;
#X obj 268 159 + 19.35;
#X obj 268 138 * 4;
#X obj 268 117 \$1;
#X obj 268 96 t b b;
#X obj 268 219 bq_coef_bp_BW;
#X obj 344 95 bng 15 250 50 0 empty empty empty 17 7 0 10 -262144 -1
-1;
#X msg 325 118 1 9;
#X obj 378 280 pack f f f f f;
#X obj 378 247 * -1;
#X obj 410 247 * -1;
#X obj 32 376 biquad~;
#X obj 134 372 biquad~;
#X obj 435 137 /;
#X obj 378 73 loadbang;
#X obj 378 199 mtof;
#X obj 378 159 + 19.35;
#X obj 378 138 * 4;
#X obj 378 117 \$1;
#X obj 378 96 t b b;
#X obj 378 219 bq_coef_bp_BW;
#X obj 454 95 bng 15 250 50 0 empty empty empty 17 7 0 10 -262144 -1
-1;
#X msg 435 118 1 9;
#X obj 378 180 + 1.33;
#X obj 269 178 - 1.33;
#X obj 33 493 min 0;
#X obj 31 425 + 16;
#X obj 135 426 + 16;
#X obj 130 497 min 0;
#X connect 0 0 4 0;
#X connect 0 0 3 0;
#X connect 1 0 0 0;
#X connect 2 0 0 1;
#X connect 3 0 32 0;
#X connect 4 0 33 0;
#X connect 5 0 12 1;
#X connect 6 0 11 0;
#X connect 7 0 12 0;
#X connect 8 0 7 0;
#X connect 9 0 8 0;
#X connect 10 0 9 0;
#X connect 11 0 10 0;
#X connect 11 1 28 0;
#X connect 12 0 1 0;
#X connect 12 1 2 0;
#X connect 12 2 0 2;
#X connect 12 3 0 3;
#X connect 12 4 0 4;
#X connect 13 0 3 0;
#X connect 14 0 4 0;
#X connect 15 0 18 0;
#X connect 16 0 15 0;
#X connect 17 0 11 0;
#X connect 19 0 62 0;
#X connect 20 0 21 0;
#X connect 21 0 61 0;
#X connect 22 0 27 0;
#X connect 23 0 22 0;
#X connect 24 0 63 0;
#X connect 25 0 26 0;
#X connect 26 0 64 0;
#X connect 28 0 5 0;
#X connect 29 0 33 0;
#X connect 29 0 32 0;
#X connect 30 0 29 0;
#X connect 31 0 29 1;
#X connect 32 0 47 0;
#X connect 33 0 48 0;
#X connect 34 0 41 1;
#X connect 35 0 40 0;
#X connect 36 0 41 0;
#X connect 37 0 60 0;
#X connect 38 0 37 0;
#X connect 39 0 38 0;
#X connect 40 0 39 0;
#X connect 40 1 43 0;
#X connect 41 0 30 0;
#X connect 41 1 31 0;
#X connect 41 2 29 2;
#X connect 41 3 29 3;
#X connect 41 4 29 4;
#X connect 42 0 40 0;
#X connect 43 0 34 0;
#X connect 44 0 48 0;
#X connect 44 0 47 0;
#X connect 45 0 44 0;
#X connect 46 0 44 1;
#X connect 47 0 19 0;
#X connect 48 0 24 0;
#X connect 49 0 56 1;
#X connect 50 0 55 0;
#X connect 51 0 56 0;
#X connect 52 0 59 0;
#X connect 53 0 52 0;
#X connect 54 0 53 0;
#X connect 55 0 54 0;
#X connect 55 1 58 0;
#X connect 56 0 45 0;
#X connect 56 1 46 0;
#X connect 56 2 44 2;
#X connect 56 3 44 3;
#X connect 56 4 44 4;
#X connect 57 0 55 0;
#X connect 58 0 49 0;
#X connect 59 0 51 0;
#X connect 60 0 36 0;
#X connect 61 0 16 0;
#X connect 62 0 20 0;
#X connect 63 0 25 0;
#X connect 64 0 23 0;
