#N canvas 473 259 1005 651 10;
#X obj 88 176 30_bands_stereo_eq;
#X obj 673 311 dac~;
#X obj 88 133 *~;
#X floatatom 485 91 5 0 0 0 - - -, f 5;
#X obj 87 30 noise~;
#X obj 421 136 *~;
#X floatatom 476 114 5 0 0 0 - - -, f 5;
#X obj 367 132 *~;
#X obj 366 29 noise~;
#X text 329 462 analyse;
#X text 660 224 equalization;
#X obj 421 33 osc~ 400;
#X msg 641 21 load 1;
#X text 705 29 load / save preset;
#X msg 663 67 reset;
#X msg 679 107 bypass \$1;
#X obj 680 87 tgl 15 0 empty empty empty 17 7 0 10 -262144 -1 -1 0
1;
#X msg 687 144 gain;
#X floatatom 686 127 5 0 0 0 - - -, f 5;
#X msg 652 44 save 1;
#X obj 87 314 30_bands_stereo_analyse;
#X floatatom 424 5 5 0 0 0 - - -, f 5;
#X msg 833 103 lowcut_on \$1;
#X obj 836 81 tgl 15 0 empty empty empty 17 7 0 10 -262144 -1 -1 0
1;
#X floatatom 839 129 5 0 0 0 - - -, f 5;
#X msg 840 152 lowcut_fq \$1;
#X text 667 276 shift click on preset N° to save a preset from the
GUI;
#X connect 0 0 1 0;
#X connect 0 0 20 0;
#X connect 0 1 1 1;
#X connect 0 1 20 1;
#X connect 2 0 0 0;
#X connect 3 0 2 1;
#X connect 3 0 7 1;
#X connect 4 0 2 0;
#X connect 5 0 0 1;
#X connect 6 0 5 1;
#X connect 7 0 0 1;
#X connect 8 0 7 0;
#X connect 11 0 5 0;
#X connect 12 0 0 2;
#X connect 14 0 0 2;
#X connect 15 0 0 2;
#X connect 16 0 15 0;
#X connect 17 0 0 2;
#X connect 18 0 17 0;
#X connect 19 0 0 2;
#X connect 21 0 11 0;
#X connect 22 0 0 2;
#X connect 23 0 22 0;
#X connect 24 0 25 0;
#X connect 25 0 0 2;
