#N canvas 868 150 1027 905 10;
#X obj 54 42 inlet~;
#X text 497 214 25;
#X text 543 214 50;
#X text 583 214 100;
#X text 629 215 200;
#X text 675 215 400;
#X text 719 215 800;
#X text 762 215 1600;
#X text 807 215 3200;
#X text 853 215 6400;
#X text 895 215 12800;
#N canvas 0 50 450 250 (subpatch) 0;
#X array \$0-unit 30 float 2;
#X coords -0 0 30 -60 450 115 2 0 0;
#X restore 499 100 graph;
#X obj 503 620 loadbang;
#X obj 503 675 s \$0-unit;
#X obj 167 39 inlet~;
#X obj 55 66 send~ \$0-soundL;
#X obj 168 64 send~ \$0-soundR;
#X msg 504 639 ylabel -0.5 -60 -40 -20 0 \, yticks 0 10 1 \, xticks
0 1 1 xlabel 0 1 2 3 \, const -13;
#N canvas 0 50 450 250 (subpatch) 0;
#X array \$0-unit2 30 float 2;
#X coords -0 0 30 -60 450 115 2 0 0;
#X restore 499 100 graph;
#X obj 414 257 switch~;
#X obj 407 105 tgl 15 0 empty empty empty 17 7 0 10 -258113 -1 -1 1
1;
#X text 434 106 enable;
#X obj 62 134 1_band_analyse 0 \$0;
#X obj 62 375 1_band_analyse 12 \$0;
#X obj 62 154 1_band_analyse 1 \$0;
#X obj 61 174 1_band_analyse 2 \$0;
#X obj 61 194 1_band_analyse 3 \$0;
#X obj 61 214 1_band_analyse 4 \$0;
#X obj 62 234 1_band_analyse 5 \$0;
#X obj 62 255 1_band_analyse 6 \$0;
#X obj 61 274 1_band_analyse 7 \$0;
#X obj 61 294 1_band_analyse 8 \$0;
#X obj 61 314 1_band_analyse 9 \$0;
#X obj 62 335 1_band_analyse 10 \$0;
#X obj 62 354 1_band_analyse 11 \$0;
#X obj 61 395 1_band_analyse 13 \$0;
#X obj 62 416 1_band_analyse 14 \$0;
#X obj 61 433 1_band_analyse 15 \$0;
#X obj 61 454 1_band_analyse 16 \$0;
#X obj 61 474 1_band_analyse 17 \$0;
#X obj 62 494 1_band_analyse 18 \$0;
#X obj 61 514 1_band_analyse 19 \$0;
#X obj 61 534 1_band_analyse 20 \$0;
#X obj 61 554 1_band_analyse 21 \$0;
#X obj 61 573 1_band_analyse 22 \$0;
#X obj 61 594 1_band_analyse 23 \$0;
#X obj 61 614 1_band_analyse 24 \$0;
#X obj 62 635 1_band_analyse 25 \$0;
#X obj 62 654 1_band_analyse 26 \$0;
#X obj 61 675 1_band_analyse 27 \$0;
#X obj 61 694 1_band_analyse 28 \$0;
#X obj 62 715 1_band_analyse 29 \$0;
#X connect 0 0 15 0;
#X connect 12 0 17 0;
#X connect 14 0 16 0;
#X connect 17 0 13 0;
#X connect 20 0 19 0;
#X coords 0 -1 1 1 560 130 2 400 100;
