#N canvas 519 121 1223 908 10;
#X obj 142 149 inlet~;
#X obj 173 170 inlet~;
#X obj 137 886 outlet~;
#X obj 213 886 outlet~;
#X obj 509 107 vsl 15 100 -12 12 0 0 empty \$0-0-fader empty 0 -9 0
10 -262144 -1 -1 4950 1;
#X obj 524 107 vsl 15 100 -12 12 0 0 empty \$0-1_fader empty 0 -9 0
10 -262144 -1 -1 4950 1;
#X obj 539 107 vsl 15 100 -12 12 0 0 empty \$0-2-fader empty 0 -9 0
10 -262144 -1 -1 4950 1;
#X obj 554 107 vsl 15 100 -12 12 0 0 empty \$0-3-fader empty 0 -9 0
10 -262144 -1 -1 4950 1;
#X obj 569 107 vsl 15 100 -12 12 0 0 empty \$0-4-fader empty 0 -9 0
10 -262144 -1 -1 4950 1;
#X obj 584 107 vsl 15 100 -12 12 0 0 empty \$0-5-fader empty 0 -9 0
10 -262144 -1 -1 4950 1;
#X obj 599 107 vsl 15 100 -12 12 0 0 empty \$0-6-fader empty 0 -9 0
10 -262144 -1 -1 4950 1;
#X obj 614 107 vsl 15 100 -12 12 0 0 empty \$0-7-fader empty 0 -9 0
10 -262144 -1 -1 4950 1;
#X obj 629 107 vsl 15 100 -12 12 0 0 empty \$0-8-fader empty 0 -9 0
10 -262144 -1 -1 4950 1;
#X obj 644 107 vsl 15 100 -12 12 0 0 empty \$0-9-fader empty 0 -9 0
10 -262144 -1 -1 4950 1;
#X obj 659 107 vsl 15 100 -12 12 0 0 empty \$0-10-fader empty 0 -9
0 10 -262144 -1 -1 4950 1;
#X obj 674 107 vsl 15 100 -12 12 0 0 empty \$0-11-fader empty 0 -9
0 10 -262144 -1 -1 4950 1;
#X obj 689 107 vsl 15 100 -12 12 0 0 empty \$0-12-fader empty 0 -9
0 10 -262144 -1 -1 4950 1;
#X obj 704 107 vsl 15 100 -12 12 0 0 empty \$0-13-fader empty 0 -9
0 10 -262144 -1 -1 4950 1;
#X obj 719 107 vsl 15 100 -12 12 0 0 empty \$0-14-fader empty 0 -9
0 10 -262144 -1 -1 4950 1;
#X obj 734 107 vsl 15 100 -12 12 0 0 empty 150-15-fader empty 0 -9
0 10 -262144 -1 -1 4950 1;
#X obj 749 107 vsl 15 100 -12 12 0 0 empty \$0-16-fader empty 0 -9
0 10 -262144 -1 -1 4950 1;
#X obj 764 107 vsl 15 100 -12 12 0 0 empty \$0-17-fader empty 0 -9
0 10 -262144 -1 -1 4950 1;
#X obj 779 107 vsl 15 100 -12 12 0 0 empty \$0-18-fader empty 0 -9
0 10 -262144 -1 -1 4950 1;
#X obj 794 107 vsl 15 100 -12 12 0 0 empty \$0-19-fader empty 0 -9
0 10 -262144 -1 -1 4950 1;
#X obj 809 107 vsl 15 100 -12 12 0 0 empty \$0-20-fader empty 0 -9
0 10 -262144 -1 -1 4950 1;
#X obj 824 107 vsl 15 100 -12 12 0 0 empty \$0-21-fader empty 0 -9
0 10 -262144 -1 -1 4950 1;
#X obj 839 107 vsl 15 100 -12 12 0 0 empty \$0-22-fader empty 0 -9
0 10 -262144 -1 -1 4950 1;
#X obj 854 107 vsl 15 100 -12 12 0 0 empty \$0-23-fader empty 0 -9
0 10 -262144 -1 -1 4950 1;
#X obj 869 107 vsl 15 100 -12 12 0 0 empty \$0-24-fader empty 0 -9
0 10 -262144 -1 -1 4950 1;
#X obj 884 107 vsl 15 100 -12 12 0 0 empty \$0-25-fader empty 0 -9
0 10 -262144 -1 -1 4950 1;
#X obj 899 107 vsl 15 100 -12 12 0 0 empty \$0-26-fader empty 0 -9
0 10 -262144 -1 -1 4950 1;
#X obj 914 107 vsl 15 100 -12 12 0 0 empty \$0-27-fader empty 0 -9
0 10 -262144 -1 -1 4950 1;
#X obj 929 107 vsl 15 100 -12 12 0 0 empty \$0-28-fader empty 0 -9
0 10 -262144 -1 -1 4950 1;
#X obj 944 107 vsl 15 100 -12 12 0 0 empty \$0-29-fader empty 0 -9
0 10 -262144 -1 -1 4950 1;
#X obj 750 1 loadbang;
#X obj 750 21 t b;
#X msg 750 41 0;
#X obj 426 119 bng 15 250 50 0 empty empty empty 17 7 0 10 -258113
-1 -1;
#X obj 426 141 tgl 15 0 empty empty empty 17 7 0 10 -257985 -1 -1 0
1;
#X obj 228 171 == 0;
#X obj 141 197 *~ 1;
#X obj 172 197 *~ 1;
#X obj 74 197 *~ 0;
#X obj 107 199 *~ 0;
#X text 443 118 reset;
#X text 445 140 bypass;
#X text 506 214 25;
#X text 554 214 50;
#X text 594 214 100;
#X text 640 215 200;
#X text 686 215 400;
#X text 730 215 800;
#X text 773 215 1600;
#X text 818 215 3200;
#X text 864 215 6400;
#X text 906 215 12800;
#N canvas 0 50 450 250 (subpatch) 0;
#X array \$0-unit 30 float 2;
#X coords 0 13 30 -13 465 115 2 0 0;
#X restore 501 100 graph;
#X obj 559 774 loadbang;
#X obj 559 829 s \$0-unit;
#X obj 443 774 dbtorms;
#X obj 443 753 + 100;
#X floatatom 426 162 5 0 0 0 - - -, f 5;
#X text 458 161 gain;
#X obj 141 850 *~ 1;
#X obj 212 852 *~ 1;
#X obj 404 103 vradio 15 1 0 6 empty \$0-set_preset empty 0 -8 0 10
-24198 -1 -262144 0;
#X text 423 100 preset;
#X msg 559 793 ylabel -0.5 -12 -6 0 6 12 \, yticks 0 1 1 \, xticks
0 1 3 \, const -13;
#X obj 142 243 1_band_eq 0 \$0;
#X obj 579 635 s \$0-preset;
#X msg 579 614 write eq_preset_\$1.txt;
#X obj 582 724 s \$0-preset;
#X msg 582 703 read eq_preset_\$1.txt;
#X obj 555 571 f;
#X obj 655 509 tgl 15 0 empty empty empty 17 7 0 10 -262144 -1 -1 0
1;
#X obj 626 538 == 0;
#X obj 555 683 t b f;
#X obj 283 11 inlet;
#X obj 164 66 f;
#X obj 206 67 f;
#X obj 241 71 f;
#X obj 280 78 unpack f f;
#X obj 280 101 pack f f;
#X obj 280 123 s \$0-set;
#X obj 770 449 keyname;
#X obj 768 472 pack f s;
#X msg 769 496 \$2 \$1;
#X obj 770 575 ||;
#X obj 835 543 t b f;
#X obj 771 521 route Shift_L Shift_R;
#X obj 828 607 loadbang;
#X msg 827 628 0;
#X obj 821 651 * -3;
#X obj 816 675 + 16;
#X msg 816 698 color \$1 22 0;
#X obj 817 723 s \$0-set_preset;
#X obj 556 748 s \$0-load;
#X obj 142 303 1_band_eq 3 \$0;
#X obj 142 263 1_band_eq 1 \$0;
#X obj 142 283 1_band_eq 2 \$0;
#X obj 142 323 1_band_eq 4 \$0;
#X obj 142 343 1_band_eq 5 \$0;
#X obj 142 363 1_band_eq 6 \$0;
#X obj 142 383 1_band_eq 7 \$0;
#X obj 142 403 1_band_eq 8 \$0;
#X obj 142 423 1_band_eq 9 \$0;
#X obj 142 443 1_band_eq 10 \$0;
#X obj 142 463 1_band_eq 11 \$0;
#X obj 142 483 1_band_eq 12 \$0;
#X obj 142 503 1_band_eq 13 \$0;
#X obj 142 523 1_band_eq 14 \$0;
#X obj 142 542 1_band_eq 15 \$0;
#X obj 142 563 1_band_eq 16 \$0;
#X obj 142 583 1_band_eq 17 \$0;
#X obj 142 603 1_band_eq 18 \$0;
#X obj 142 623 1_band_eq 19 \$0;
#X obj 142 643 1_band_eq 20 \$0;
#X obj 142 663 1_band_eq 21 \$0;
#X obj 142 682 1_band_eq 22 \$0;
#X obj 142 703 1_band_eq 23 \$0;
#X obj 142 723 1_band_eq 24 \$0;
#X obj 143 744 1_band_eq 25 \$0;
#X obj 142 763 1_band_eq 26 \$0;
#X obj 142 783 1_band_eq 27 \$0;
#X obj 142 803 1_band_eq 28 \$0;
#X obj 142 823 1_band_eq 29 \$0;
#X obj 580 592 spigot 0;
#X obj 555 663 spigot 1;
#X text 419 197 low cut;
#X obj 403 197 tgl 15 0 empty empty empty 17 7 0 10 -262144 -1 -1 0
1;
#X floatatom 404 215 5 0 0 0 - - -, f 5;
#N canvas 119 501 720 423 lowCut 0;
#X obj 63 27 inlet~;
#X obj 273 27 inlet;
#X text 291 48 Fq;
#X obj 363 26 inlet;
#X obj 64 225 biquad~;
#X obj 273 143 pack f f f f f;
#X obj 64 357 outlet~;
#X obj 143 297 == 0;
#X obj 85 296 f;
#X obj 173 27 inlet~;
#X obj 174 225 biquad~;
#X obj 174 357 outlet~;
#X obj 273 122 * -1;
#X obj 303 122 * -1;
#X text 381 47 enable;
#X obj 175 328 *~ 0;
#X obj 231 329 *~ 1;
#X obj 120 329 *~ 1;
#X obj 65 328 *~ 0;
#X obj 273 96 bq_coef_hip;
#X obj 64 245 biquad~;
#X obj 174 245 biquad~;
#X msg 399 181 \$2 \$1;
#X obj 400 158 pack f 30;
#X obj 399 205 s \$0-preset;
#X msg 489 181 \$2 \$1;
#X obj 489 205 s \$0-preset;
#X obj 490 158 pack f 31;
#X connect 0 0 4 0;
#X connect 0 0 17 0;
#X connect 1 0 19 0;
#X connect 1 0 23 0;
#X connect 3 0 8 0;
#X connect 3 0 27 0;
#X connect 4 0 20 0;
#X connect 5 0 10 0;
#X connect 5 0 4 0;
#X connect 5 0 21 0;
#X connect 5 0 20 0;
#X connect 7 0 16 1;
#X connect 7 0 17 1;
#X connect 8 0 7 0;
#X connect 8 0 15 1;
#X connect 8 0 18 1;
#X connect 9 0 10 0;
#X connect 9 0 16 0;
#X connect 10 0 21 0;
#X connect 12 0 5 0;
#X connect 13 0 5 1;
#X connect 15 0 11 0;
#X connect 16 0 11 0;
#X connect 17 0 6 0;
#X connect 18 0 6 0;
#X connect 19 0 12 0;
#X connect 19 1 13 0;
#X connect 19 2 5 2;
#X connect 19 3 5 3;
#X connect 19 4 5 4;
#X connect 20 0 18 0;
#X connect 21 0 15 0;
#X connect 22 0 24 0;
#X connect 23 0 22 0;
#X connect 25 0 26 0;
#X connect 27 0 25 0;
#X restore 142 222 pd lowCut ----;
#X obj 360 76 f;
#X obj 390 76 f;
#X obj 92 42 route reset bypass gain load save set lowcut_on lowcut_fq
;
#X obj 558 850 table \$0-preset 32;
#X obj 1004 73 r \$0-load;
#X msg 1004 94 30;
#X obj 1008 141 r \$0-load;
#X msg 1008 162 31;
#X msg 350 174 0;
#X msg 343 198 50;
#X obj 1004 116 tabread \$0-preset;
#X obj 1008 183 tabread \$0-preset;
#X connect 0 0 40 0;
#X connect 0 0 42 0;
#X connect 1 0 41 0;
#X connect 1 0 43 0;
#X connect 4 0 68 2;
#X connect 5 0 98 2;
#X connect 6 0 99 2;
#X connect 7 0 97 2;
#X connect 8 0 100 2;
#X connect 9 0 101 2;
#X connect 10 0 102 2;
#X connect 11 0 103 2;
#X connect 12 0 104 2;
#X connect 13 0 105 2;
#X connect 14 0 106 2;
#X connect 15 0 107 2;
#X connect 16 0 108 2;
#X connect 17 0 109 2;
#X connect 18 0 110 2;
#X connect 19 0 111 2;
#X connect 20 0 112 2;
#X connect 21 0 113 2;
#X connect 22 0 114 2;
#X connect 23 0 115 2;
#X connect 24 0 116 2;
#X connect 25 0 117 2;
#X connect 26 0 118 2;
#X connect 27 0 119 2;
#X connect 28 0 120 2;
#X connect 29 0 121 2;
#X connect 30 0 122 2;
#X connect 31 0 123 2;
#X connect 32 0 124 2;
#X connect 33 0 125 2;
#X connect 34 0 35 0;
#X connect 35 0 36 0;
#X connect 36 0 4 0;
#X connect 36 0 5 0;
#X connect 36 0 6 0;
#X connect 36 0 7 0;
#X connect 36 0 8 0;
#X connect 36 0 9 0;
#X connect 36 0 10 0;
#X connect 36 0 11 0;
#X connect 36 0 12 0;
#X connect 36 0 13 0;
#X connect 36 0 14 0;
#X connect 36 0 15 0;
#X connect 36 0 16 0;
#X connect 36 0 17 0;
#X connect 36 0 18 0;
#X connect 36 0 19 0;
#X connect 36 0 20 0;
#X connect 36 0 21 0;
#X connect 36 0 22 0;
#X connect 36 0 23 0;
#X connect 36 0 24 0;
#X connect 36 0 25 0;
#X connect 36 0 26 0;
#X connect 36 0 27 0;
#X connect 36 0 28 0;
#X connect 36 0 29 0;
#X connect 36 0 31 0;
#X connect 36 0 30 0;
#X connect 36 0 32 0;
#X connect 36 0 33 0;
#X connect 37 0 36 0;
#X connect 37 0 140 0;
#X connect 37 0 141 0;
#X connect 38 0 39 0;
#X connect 38 0 42 1;
#X connect 38 0 43 1;
#X connect 39 0 40 1;
#X connect 39 0 41 1;
#X connect 40 0 131 0;
#X connect 41 0 131 1;
#X connect 42 0 2 0;
#X connect 43 0 3 0;
#X connect 57 0 67 0;
#X connect 59 0 63 1;
#X connect 59 0 64 1;
#X connect 60 0 59 0;
#X connect 61 0 60 0;
#X connect 63 0 2 0;
#X connect 64 0 3 0;
#X connect 65 0 73 0;
#X connect 67 0 58 0;
#X connect 68 0 98 0;
#X connect 68 1 98 1;
#X connect 70 0 69 0;
#X connect 72 0 71 0;
#X connect 73 0 126 0;
#X connect 73 0 127 0;
#X connect 74 0 75 0;
#X connect 74 0 126 1;
#X connect 75 0 127 1;
#X connect 76 0 96 0;
#X connect 76 1 72 0;
#X connect 77 0 134 0;
#X connect 78 0 61 0;
#X connect 79 0 76 0;
#X connect 80 0 70 0;
#X connect 81 0 82 0;
#X connect 81 1 82 1;
#X connect 82 0 83 0;
#X connect 84 0 85 0;
#X connect 84 1 85 1;
#X connect 85 0 86 0;
#X connect 86 0 89 0;
#X connect 87 0 74 0;
#X connect 87 0 92 0;
#X connect 88 0 87 0;
#X connect 88 1 87 1;
#X connect 89 0 87 0;
#X connect 89 1 88 0;
#X connect 90 0 91 0;
#X connect 91 0 92 0;
#X connect 92 0 93 0;
#X connect 93 0 94 0;
#X connect 94 0 95 0;
#X connect 97 0 100 0;
#X connect 97 1 100 1;
#X connect 98 0 99 0;
#X connect 98 1 99 1;
#X connect 99 0 97 0;
#X connect 99 1 97 1;
#X connect 100 0 101 0;
#X connect 100 1 101 1;
#X connect 101 0 102 0;
#X connect 101 1 102 1;
#X connect 102 0 103 0;
#X connect 102 1 103 1;
#X connect 103 0 104 0;
#X connect 103 1 104 1;
#X connect 104 0 105 0;
#X connect 104 1 105 1;
#X connect 105 0 106 0;
#X connect 105 1 106 1;
#X connect 106 0 107 0;
#X connect 106 1 107 1;
#X connect 107 0 108 0;
#X connect 107 1 108 1;
#X connect 108 0 109 0;
#X connect 108 1 109 1;
#X connect 109 0 110 0;
#X connect 109 1 110 1;
#X connect 110 0 111 0;
#X connect 110 1 111 1;
#X connect 111 0 112 0;
#X connect 111 1 112 1;
#X connect 112 0 113 0;
#X connect 112 1 113 1;
#X connect 113 0 114 0;
#X connect 113 1 114 1;
#X connect 114 0 115 0;
#X connect 114 1 115 1;
#X connect 115 0 116 0;
#X connect 115 1 116 1;
#X connect 116 0 117 0;
#X connect 116 1 117 1;
#X connect 117 0 118 0;
#X connect 117 1 118 1;
#X connect 118 0 119 0;
#X connect 118 1 119 1;
#X connect 119 0 120 0;
#X connect 119 1 120 1;
#X connect 120 0 121 0;
#X connect 120 1 121 1;
#X connect 121 0 122 0;
#X connect 121 1 122 1;
#X connect 122 0 123 0;
#X connect 122 1 123 1;
#X connect 123 0 124 0;
#X connect 123 1 124 1;
#X connect 124 0 125 0;
#X connect 124 1 125 1;
#X connect 125 0 63 0;
#X connect 125 1 64 0;
#X connect 126 0 70 0;
#X connect 127 0 76 0;
#X connect 129 0 131 3;
#X connect 130 0 131 2;
#X connect 131 0 68 0;
#X connect 131 1 68 1;
#X connect 132 0 129 0;
#X connect 133 0 130 0;
#X connect 134 0 37 0;
#X connect 134 1 38 0;
#X connect 134 2 78 0;
#X connect 134 3 79 0;
#X connect 134 4 80 0;
#X connect 134 5 81 0;
#X connect 134 6 132 0;
#X connect 134 7 133 0;
#X connect 136 0 137 0;
#X connect 137 0 142 0;
#X connect 138 0 139 0;
#X connect 139 0 143 0;
#X connect 140 0 129 0;
#X connect 141 0 130 0;
#X connect 142 0 130 0;
#X connect 143 0 129 0;
#X coords 0 -1 1 1 570 130 2 400 100;
