#N canvas 1 85 450 300 10;
#X obj 39 35 inlet~;
#X obj 66 78 *~ -1;
#X obj 66 99 exp~;
#X obj 39 100 exp~;
#X obj 66 127 *~ -1;
#X obj 39 185 /~ 2;
#X obj 39 211 outlet~;
#X connect 0 0 1 0;
#X connect 0 0 3 0;
#X connect 1 0 2 0;
#X connect 2 0 4 0;
#X connect 3 0 5 0;
#X connect 4 0 5 0;
#X connect 5 0 6 0;
