#N canvas 144 316 473 639 10;
#X obj 50 32 inlet;
#X obj 206 31 inlet;
#X text 92 34 f;
#X obj 119 148 samplerate~;
#X obj 119 125 loadbang;
#X obj 176 126 bng 15 250 50 0 empty empty empty 17 7 0 10 -262144
-1 -1;
#X obj 50 180 /;
#X obj 50 349 cos;
#X obj 200 276 sin;
#X obj 50 574 outlet;
#X obj 50 467 * -2;
#X obj 94 523 /;
#X obj 139 523 /;
#X obj 229 525 /;
#X obj 139 574 outlet;
#X obj 94 574 outlet;
#X obj 184 574 outlet;
#X obj 229 574 outlet;
#X obj 50 226 f;
#X obj 206 141 t b f;
#X msg 319 440 1 \$1;
#X obj 50 73 max 0;
#X obj 50 128 * 3.14159;
#X obj 50 148 * 2;
#X obj 50 548 t f f;
#X obj 302 32 inlet;
#X text 344 198 A;
#X obj 302 117 pow;
#X msg 302 96 10;
#X obj 302 77 t b f;
#X obj 302 54 / 40;
#X msg 147 443 1 \$1;
#X msg 232 445 1 \$1;
#X obj 232 470 -;
#X obj 302 202 t b f;
#X obj 147 468 +;
#X obj 50 99 min 21000;
#X obj 233 276 _sinh;
#X text 251 31 BW;
#X text 79 228 Omega 0;
#X obj 200 303 *;
#X obj 233 163 * 0.3466;
#X obj 233 255 *;
#X obj 198 184 t f f;
#X obj 225 208 sin;
#X obj 199 235 /;
#X obj 50 249 t f f f;
#X text 236 304 alpha;
#X obj 228 371 *;
#X obj 198 368 /;
#X obj 50 523 /;
#X obj 318 489 f;
#X text 353 490 A0;
#X text 55 599 A1;
#X text 101 600 A2;
#X text 142 598 B0;
#X text 189 598 B1;
#X text 236 595 B2;
#X msg 93 446 1 \$1;
#X obj 93 469 -;
#X obj 200 334 t f f f;
#X obj 276 370 /;
#X obj 319 465 +;
#X connect 0 0 21 0;
#X connect 1 0 19 0;
#X connect 3 0 6 1;
#X connect 4 0 3 0;
#X connect 5 0 3 0;
#X connect 6 0 18 0;
#X connect 7 0 10 0;
#X connect 8 0 40 0;
#X connect 10 0 50 0;
#X connect 11 0 15 0;
#X connect 12 0 14 0;
#X connect 13 0 17 0;
#X connect 18 0 46 0;
#X connect 19 0 18 0;
#X connect 19 1 41 0;
#X connect 20 0 62 0;
#X connect 21 0 36 0;
#X connect 22 0 23 0;
#X connect 23 0 6 0;
#X connect 24 0 9 0;
#X connect 24 1 16 0;
#X connect 25 0 30 0;
#X connect 27 0 34 0;
#X connect 28 0 27 0;
#X connect 29 0 28 0;
#X connect 29 1 27 1;
#X connect 30 0 29 0;
#X connect 31 0 35 0;
#X connect 32 0 33 0;
#X connect 33 0 13 0;
#X connect 34 0 18 0;
#X connect 34 1 49 1;
#X connect 34 1 48 1;
#X connect 34 1 61 1;
#X connect 35 0 12 0;
#X connect 36 0 22 0;
#X connect 37 0 40 1;
#X connect 40 0 60 0;
#X connect 41 0 42 1;
#X connect 42 0 37 0;
#X connect 43 0 45 0;
#X connect 43 1 44 0;
#X connect 44 0 45 1;
#X connect 45 0 42 0;
#X connect 46 0 7 0;
#X connect 46 1 8 0;
#X connect 46 2 43 0;
#X connect 48 0 31 0;
#X connect 48 0 32 0;
#X connect 49 0 58 0;
#X connect 50 0 24 0;
#X connect 51 0 13 1;
#X connect 51 0 12 1;
#X connect 51 0 11 1;
#X connect 51 0 50 1;
#X connect 58 0 59 0;
#X connect 59 0 11 0;
#X connect 60 0 49 0;
#X connect 60 1 48 0;
#X connect 60 2 61 0;
#X connect 61 0 20 0;
#X connect 62 0 51 0;
