#N canvas 607 280 586 521 10;
#X obj 62 144 *~;
#X floatatom 82 126 5 0 0 0 - - -, f 5;
#X obj 61 94 osc~ 33;
#X floatatom 61 51 5 0 0 0 - - -, f 5;
#X obj 61 69 mtof;
#X obj 147 55 bng 15 250 50 0 empty empty empty 17 7 0 10 -262144 -1
-1;
#X obj 146 124 *~;
#X floatatom 168 107 5 0 0 0 - - -, f 5;
#X obj 250 157 vline~;
#X obj 227 177 *~;
#X obj 227 199 *~;
#X floatatom 263 179 5 0 0 0 - - -, f 5;
#X obj 243 53 tgl 15 0 empty empty empty 17 7 0 10 -262144 -1 -1 0
1;
#X obj 63 361 dac~;
#X obj 228 101 osc~ 222;
#X obj 250 77 metro 33;
#X obj 62 289 *~;
#X msg 250 132 1 1 0 \, 0 1 10;
#X floatatom 302 58 5 0 0 0 - - -, f 5;
#X floatatom 121 269 5 0 0 0 - - -, f 5;
#X obj 189 314 oscillo~;
#X obj 189 420 oscillo~;
#X obj 63 324 compress_limit~;
#X msg 438 84 0 1;
#X obj 438 63 loadbang;
#X obj 438 104 s dirac;
#X obj 147 80 tabplay~ dirac;
#X obj 438 123 table dirac 2;
#X connect 0 0 16 0;
#X connect 1 0 0 1;
#X connect 2 0 0 0;
#X connect 3 0 4 0;
#X connect 4 0 2 0;
#X connect 5 0 26 0;
#X connect 6 0 16 0;
#X connect 7 0 6 1;
#X connect 8 0 9 1;
#X connect 9 0 10 0;
#X connect 10 0 16 0;
#X connect 11 0 10 1;
#X connect 12 0 15 0;
#X connect 14 0 9 0;
#X connect 15 0 17 0;
#X connect 16 0 22 0;
#X connect 16 0 20 0;
#X connect 17 0 8 0;
#X connect 18 0 15 1;
#X connect 19 0 16 1;
#X connect 22 0 13 0;
#X connect 22 0 13 1;
#X connect 22 0 21 0;
#X connect 23 0 25 0;
#X connect 24 0 23 0;
#X connect 26 0 6 0;
