#N canvas 512 431 571 550 10;
#X declare -path ../puremapping;
#X obj 23 14 inlet~;
#X obj 24 373 /~;
#X obj 24 442 outlet~;
#X obj 323 279 dbtorms;
#X obj 323 258 + 3;
#X obj 323 303 + 0.1;
#X obj 323 350 moses 1;
#X obj 323 420 f;
#X obj 323 396 + 0.5;
#X obj 323 373 * 0.5;
#X obj 234 82 env~ 128 64;
#X obj 323 467 line~;
#X obj 335 83 env~ 1024 128;
#X obj 234 102 max;
#X msg 323 444 \$1 4;
#X obj 24 324 / 44100;
#X msg 24 296 128;
#X obj 23 79 delwrite~ \$0-delay 3;
#X text 370 422 change this curve if you wish;
#X obj 282 37 declare -path ../puremapping;
#X obj 361 171 bang~;
#X msg 361 193 0;
#X obj 323 215 max;
#X obj 323 237 f;
#X obj 24 232 samplerate~;
#X obj 234 123 t f f;
#X obj 24 167 r pd;
#X obj 24 189 route dsp;
#X obj 24 211 sel 1;
#X obj 24 254 t b f;
#X obj 24 347 delread~ \$0-delay;
#X obj 234 143 outlet;
#X obj 323 193 inlet;
#N canvas 55 305 373 454 env+ 0;
#X obj 59 42 inlet;
#X obj 59 432 outlet;
#X obj 59 349 +;
#X obj 130 317 + 1;
#X obj 130 42 inlet;
#X obj 130 185 1;
#X obj 130 160 /;
#X msg 130 139 1 \$1;
#X obj 77 375 / 2;
#X obj 59 325 * 1;
#X obj 59 218 moses;
#X obj 102 266 f;
#X obj 59 406 t f f;
#X obj 59 134 t f f;
#X obj 102 244 b;
#X msg 102 288 \$1 0;
#X obj 235 42 inlet;
#X connect 0 0 13 0;
#X connect 2 0 8 0;
#X connect 2 0 12 0;
#X connect 3 0 8 1;
#X connect 4 0 7 0;
#X connect 5 0 3 0;
#X connect 5 0 9 1;
#X connect 6 0 5 0;
#X connect 7 0 6 0;
#X connect 8 0 2 1;
#X connect 9 0 2 0;
#X connect 10 0 9 0;
#X connect 10 1 14 0;
#X connect 11 0 15 0;
#X connect 12 0 1 0;
#X connect 12 1 10 1;
#X connect 13 0 10 0;
#X connect 13 1 11 1;
#X connect 14 0 11 0;
#X connect 15 0 2 0;
#X connect 16 0 2 1;
#X restore 323 325 pd env+ 11;
#X msg 414 282 11;
#X obj 414 259 loadbang;
#X connect 0 0 10 0;
#X connect 0 0 12 0;
#X connect 0 0 17 0;
#X connect 1 0 2 0;
#X connect 3 0 5 0;
#X connect 4 0 3 0;
#X connect 5 0 33 0;
#X connect 6 0 9 0;
#X connect 6 1 7 0;
#X connect 7 0 14 0;
#X connect 8 0 7 0;
#X connect 9 0 8 0;
#X connect 10 0 13 0;
#X connect 11 0 1 1;
#X connect 12 0 13 1;
#X connect 13 0 25 0;
#X connect 14 0 11 0;
#X connect 15 0 30 0;
#X connect 16 0 15 0;
#X connect 20 0 21 0;
#X connect 21 0 22 1;
#X connect 22 0 23 0;
#X connect 23 0 22 1;
#X connect 23 0 4 0;
#X connect 24 0 29 0;
#X connect 25 0 31 0;
#X connect 26 0 27 0;
#X connect 27 0 28 0;
#X connect 28 0 24 0;
#X connect 29 0 16 0;
#X connect 29 1 15 1;
#X connect 30 0 1 0;
#X connect 32 0 22 0;
#X connect 33 0 6 0;
#X connect 34 0 33 1;
#X connect 35 0 34 0;
