#N canvas 627 365 834 584 10;
#X floatatom 147 224 9 0 0 0 - - -, f 9;
#X floatatom 147 132 5 0 100 0 - - -, f 5;
#X obj 147 200 mtof;
#X floatatom 50 146 5 0 0 0 - - -, f 5;
#X floatatom 50 104 5 0 120 0 - - -, f 5;
#X obj 50 124 mtof;
#X floatatom 252 164 5 0 100 0 - - -, f 5;
#X msg 147 156 \$1 50;
#X obj 252 182 / 100;
#X obj 199 479 oscillo~;
#X obj 50 185 line~;
#X msg 50 163 \$1 55;
#X obj 147 270 line~;
#X msg 147 249 \$1 55;
#X obj 147 179 line 0 5;
#X msg 252 204 \$1 50;
#X obj 252 227 line~;
#X obj 337 257 sig~;
#X floatatom 337 195 5 0 300 0 - - -, f 5;
#X msg 337 235 \$1 50;
#X obj 50 303 *~ 1.5;
#X text 162 376 \$1 : filter type;
#X text 198 395 LP24 : (default) Low Pass 24dB/Octave;
#X text 198 410 LP12 : Low Pass 12dB/Octave;
#X text 198 425 HP12 : High Pass 12dB/Octave;
#X text 198 440 BP12 : Band Pass 12dB/Octave;
#X text 421 209 0 : clean;
#X text 88 102 Oscillator frequency;
#X text 187 130 Cutoff frequency;
#X text 298 162 resonance;
#X floatatom 83 281 5 0 0 0 - - -, f 5;
#X text 275 26 filter~ is an analog style multimod audio filter;
#X text 49 54 beware : audio in is clipped between -1 and 1;
#X text 420 226 50% : moog like;
#X text 420 242 100 % : dirty (specially with high resonance \, and
high input amplitude);
#X obj 337 213 / 300;
#X text 376 193 charactere type :;
#X obj 51 375 ./filter~ LP24;
#X obj 52 536 dac~;
#X obj 52 509 *~;
#X floatatom 92 451 5 0 100 0 - - -, f 5;
#X obj 92 470 / 100;
#X obj 92 512 line~;
#X obj 92 534 *~;
#X msg 92 491 \$1 33;
#X obj 50 217 saw2~;
#X obj 51 242 -~ 0.5;
#X connect 0 0 13 0;
#X connect 1 0 7 0;
#X connect 2 0 0 0;
#X connect 3 0 11 0;
#X connect 4 0 5 0;
#X connect 5 0 3 0;
#X connect 6 0 8 0;
#X connect 7 0 14 0;
#X connect 8 0 15 0;
#X connect 10 0 45 0;
#X connect 11 0 10 0;
#X connect 12 0 37 1;
#X connect 13 0 12 0;
#X connect 14 0 2 0;
#X connect 15 0 16 0;
#X connect 16 0 37 2;
#X connect 17 0 37 3;
#X connect 18 0 35 0;
#X connect 19 0 17 0;
#X connect 20 0 37 0;
#X connect 30 0 20 1;
#X connect 35 0 19 0;
#X connect 37 0 39 0;
#X connect 37 0 9 0;
#X connect 39 0 38 0;
#X connect 39 0 38 1;
#X connect 40 0 41 0;
#X connect 41 0 44 0;
#X connect 42 0 43 0;
#X connect 42 0 43 1;
#X connect 43 0 39 1;
#X connect 44 0 42 0;
#X connect 45 0 46 0;
#X connect 46 0 20 0;
