#N canvas 1219 586 530 444 10;
#X obj 40 33 bang~;
#X obj 74 144 _until;
#X obj 40 410 outlet~;
#X obj 119 24 inlet~;
#X msg 74 123 64;
#X obj 40 63 t b b b b;
#X obj 93 220 list append;
#X obj 74 165 t f f f;
#X text 348 412 ch;
#X obj 93 271 sort;
#X obj 93 244 list split 21;
#X obj 93 294 list split 11;
#X obj 93 320 list split 10;
#X msg 350 104 resize \$1;
#X obj 271 24 inlet;
#X obj 271 123 / 2;
#X obj 271 212 i;
#X obj 168 272 + 1;
#X obj 350 38 table \$0-sound_in 64;
#X obj 350 63 table \$0-sound_out 64;
#X obj 350 130 array define \$0-median 21;
#X obj 120 117 tabwrite~ \$0-sound_in;
#X obj 93 196 tabread \$0-sound_in;
#X obj 130 343 tabwrite \$0-sound_out;
#X obj 40 387 tabplay~ \$0-sound_out;
#X connect 0 0 5 0;
#X connect 1 0 7 0;
#X connect 3 0 21 0;
#X connect 4 0 1 0;
#X connect 5 0 24 0;
#X connect 5 2 4 0;
#X connect 5 3 21 0;
#X connect 6 0 10 0;
#X connect 7 1 22 0;
#X connect 7 2 23 1;
#X connect 9 0 11 0;
#X connect 10 0 6 1;
#X connect 10 0 9 0;
#X connect 10 2 6 1;
#X connect 11 0 12 0;
#X connect 12 1 23 0;
#X connect 13 0 20 0;
#X connect 14 0 13 0;
#X connect 14 0 10 1;
#X connect 14 0 15 0;
#X connect 15 0 16 0;
#X connect 16 0 17 0;
#X connect 16 0 12 1;
#X connect 17 0 11 1;
#X connect 22 0 6 0;
#X connect 24 0 2 0;
