#N canvas 650 297 855 649 10;
#X obj 83 266 tabwrite sinc;
#X obj 83 114 _until;
#X obj 83 133 t f f;
#X obj 56 285 tab_integrate sinc Isinc;
#X obj 56 268 bng 15 250 50 0 empty empty empty 17 7 0 10 -262144 -1
-1;
#X obj 56 354 tab_mul_scalar Isinc;
#X obj 56 73 t b b;
#X obj 29 30 bng 15 250 50 0 empty empty empty 17 7 0 10 -262144 -1
-1;
#X obj 29 49 t b b;
#X msg 83 95 8192;
#X obj 56 332 /;
#X obj 83 247 /;
#X obj 83 228 sin;
#X obj 83 209 t f f;
#X obj 275 39 table sinc 8192;
#X obj 275 58 table Isinc 8192;
#X obj 527 352 soundfiler;
#X floatatom 256 486 9 0 0 0 - - -;
#X floatatom 254 432 5 0 0 0 - - -;
#X obj 466 270 textfile;
#X msg 597 27 clear;
#X msg 469 144 add2 \$1;
#X msg 369 200 add;
#X obj 453 58 _until;
#X msg 453 37 4096;
#X obj 456 88 t f f;
#X obj 370 133 % 10;
#X obj 366 166 sel 9;
#X msg 556 214 write table_Isinc.txt;
#X obj 83 152 f;
#X obj 165 187 unpack f f;
#X obj 358 477 tabread Isinc;
#X floatatom 361 423 5 0 0 0 - - -;
#X floatatom 358 501 5 0 0 0 - - -;
#X obj 83 190 * 80;
#X obj 83 171 / 8192;
#X obj 361 450 * 320;
#X msg 56 310 1 322.3;
#X msg 164 163 1 0;
#X obj 159 238 f;
#X obj 56 412 tab_copy Isinc Isinc2;
#X obj 275 78 table Isinc2 8192;
#X msg 56 380 0 2 8190;
#X obj 252 463 tabread Isinc2;
#X obj 470 114 tabread Isinc2;
#X msg 527 329 write isinc.wav Isinc2;
#X text 126 307 should be 320 \, but correct digital integration amplitude
;
#X connect 1 0 2 0;
#X connect 2 0 29 0;
#X connect 2 1 39 0;
#X connect 3 0 37 0;
#X connect 4 0 3 0;
#X connect 5 0 42 0;
#X connect 6 0 4 0;
#X connect 6 1 9 0;
#X connect 6 1 38 0;
#X connect 7 0 8 0;
#X connect 8 1 6 0;
#X connect 9 0 1 0;
#X connect 10 0 5 0;
#X connect 11 0 0 0;
#X connect 12 0 11 0;
#X connect 13 0 12 0;
#X connect 13 1 11 1;
#X connect 18 0 43 0;
#X connect 20 0 19 0;
#X connect 21 0 19 0;
#X connect 23 0 25 0;
#X connect 24 0 23 0;
#X connect 25 0 26 0;
#X connect 25 1 44 0;
#X connect 26 0 27 0;
#X connect 27 0 22 0;
#X connect 28 0 19 0;
#X connect 29 0 35 0;
#X connect 30 0 0 0;
#X connect 30 1 0 1;
#X connect 31 0 33 0;
#X connect 32 0 36 0;
#X connect 34 0 13 0;
#X connect 35 0 34 0;
#X connect 36 0 31 0;
#X connect 37 0 10 0;
#X connect 38 0 30 0;
#X connect 39 0 0 1;
#X connect 42 0 40 0;
#X connect 43 0 17 0;
#X connect 44 0 21 0;
#X connect 45 0 16 0;
