#N canvas 28 623 703 400 10;
#X obj 37 107 phasor~;
#X obj 37 129 -~ 0.5;
#X obj 37 283 *~;
#X obj 37 169 wrap~;
#X obj 38 197 -~ 0.5;
#X obj 99 169 abs~;
#X obj 205 132 /~;
#X obj 138 20 inlet;
#X obj 38 338 outlet~;
#X obj 37 21 inlet~;
#X obj 100 197 *~;
#X obj 484 120 soundfiler;
#X msg 484 101 read isinc.wav \$1-Isinc;
#X obj 483 151 table \$0-Isinc 4096;
#X obj 484 81 f \$0;
#X obj 484 63 bng 15 250 50 0 empty empty empty 17 7 0 10 -262144 -1
-1;
#X obj 484 42 loadbang;
#X text 250 155 <- adjust the cutoff frequency here;
#X obj 206 57 samplerate~;
#X obj 206 77 moses 1;
#X obj 206 36 loadbang;
#X text 81 286 <- table envelope (we don't unse sinc integration table
from -inf to inf \, only on 1 periode of the saw);
#X obj 100 248 tabread4~ \$0-Isinc;
#X obj 206 105 sig~ 48000;
#X obj 100 221 +~ 1;
#X floatatom 270 128 5 0 0 0 - - -;
#X obj 206 154 *~ 140;
#X obj 37 312 *~ 4;
#X connect 0 0 1 0;
#X connect 1 0 3 0;
#X connect 1 0 5 0;
#X connect 2 0 27 0;
#X connect 3 0 4 0;
#X connect 4 0 2 0;
#X connect 5 0 10 0;
#X connect 6 0 26 0;
#X connect 7 0 0 1;
#X connect 9 0 0 0;
#X connect 9 0 6 1;
#X connect 10 0 24 0;
#X connect 12 0 11 0;
#X connect 14 0 12 0;
#X connect 15 0 14 0;
#X connect 16 0 15 0;
#X connect 18 0 19 0;
#X connect 19 0 23 0;
#X connect 20 0 18 0;
#X connect 22 0 2 1;
#X connect 23 0 6 0;
#X connect 24 0 22 0;
#X connect 25 0 26 1;
#X connect 26 0 10 1;
#X connect 27 0 8 0;
