#N canvas 2088 509 773 461 12;
#X obj 50 135 phasor~;
#X obj 49 235 *~ 2;
#X obj 48 266 -~ 1;
#X obj 49 371 -~;
#X obj 271 155 /~;
#X obj 218 195 /~;
#X obj 252 295 /~;
#X obj 252 267 -~ 1;
#X obj 330 77 samplerate~;
#X obj 330 49 loadbang;
#X obj 50 39 inlet~;
#X obj 50 402 outlet~;
#X text 327 19 polyblep algorythm;
#X obj 218 234 expr~ if ($v1<1 \, $v1*(-$v1+2) - 1 \, 0);
#X obj 251 322 expr~ if ($v1>-1 \, $v1 *( 2 + $v1) + 1 \, 0);
#X obj 330 105 sig~ 48000;
#X connect 0 0 1 0;
#X connect 0 0 5 0;
#X connect 0 0 7 0;
#X connect 1 0 2 0;
#X connect 2 0 3 0;
#X connect 3 0 11 0;
#X connect 4 0 5 1;
#X connect 4 0 6 1;
#X connect 5 0 13 0;
#X connect 6 0 14 0;
#X connect 7 0 6 0;
#X connect 8 0 15 0;
#X connect 9 0 8 0;
#X connect 10 0 0 0;
#X connect 10 0 4 0;
#X connect 13 0 3 1;
#X connect 14 0 3 1;
#X connect 15 0 4 1;
