#N canvas 28 557 755 466 10;
#X obj 37 107 phasor~;
#X obj 37 129 -~ 0.5;
#X obj 37 169 wrap~;
#X obj 38 197 -~ 0.5;
#X obj 99 169 abs~;
#X obj 205 152 /~;
#X obj 138 20 inlet;
#X obj 40 371 outlet~;
#X obj 37 21 inlet~;
#X obj 100 197 *~;
#X obj 464 98 soundfiler;
#X obj 206 57 samplerate~;
#X obj 206 77 moses 1;
#X obj 206 36 loadbang;
#X obj 100 221 +~ 1;
#X obj 464 50 f \$0;
#X obj 464 32 bng 15 250 50 0 empty empty empty 17 7 0 10 -262144 -1
-1;
#X obj 463 189 loadbang;
#X obj 242 194 +~ 1;
#X msg 463 210 0 -1 1;
#X obj 99 282 *~;
#X obj 39 343 *~ 2;
#X obj 39 314 -~;
#X obj 464 6 loadbang;
#X obj 243 216 tabread~ \$0-sign;
#X obj 463 129 table \$0-spline 4096;
#X obj 100 248 tabread4~ \$0-spline;
#X msg 464 75 read bspline3.wav \$1-spline;
#X obj 463 231 s \$0-sign;
#X obj 462 251 table \$0-sign 2;
#X obj 206 125 sig~ 4.8e+07;
#X obj 245 100 * 1000;
#X connect 0 0 1 0;
#X connect 1 0 2 0;
#X connect 1 0 4 0;
#X connect 1 0 18 0;
#X connect 2 0 3 0;
#X connect 3 0 22 0;
#X connect 4 0 9 0;
#X connect 5 0 9 1;
#X connect 6 0 0 1;
#X connect 8 0 0 0;
#X connect 8 0 5 1;
#X connect 9 0 14 0;
#X connect 11 0 12 0;
#X connect 12 1 31 0;
#X connect 13 0 11 0;
#X connect 14 0 26 0;
#X connect 15 0 27 0;
#X connect 16 0 15 0;
#X connect 17 0 19 0;
#X connect 18 0 24 0;
#X connect 19 0 28 0;
#X connect 20 0 22 1;
#X connect 21 0 7 0;
#X connect 22 0 21 0;
#X connect 23 0 16 0;
#X connect 24 0 20 1;
#X connect 26 0 20 0;
#X connect 27 0 10 0;
#X connect 30 0 5 0;
#X connect 31 0 30 0;
