#N struct 1006-xy-pad-knob-1 float x0 float y0 float id;
#N canvas 88 185 682 476 10;
#X obj 164 428 dac~;
#X obj 24 315 noise~;
#X obj 23 344 bp~ 2444 10;
#X obj 24 371 *~ 3;
#X text 212 326 \$2 : doppler effect;
#N canvas 1115 371 804 649 carttopol 0;
#X obj 36 20 inlet;
#X obj 87 21 inlet;
#X msg 36 335 \$1 50;
#X obj 36 362 line~;
#X msg 106 336 \$1 50;
#X obj 106 362 line~;
#X obj 107 399 outlet~;
#X obj 37 399 outlet~;
#X obj 107 136 atan2;
#X obj 36 192 t f f;
#X obj 41 222 *;
#X obj 87 195 t f f;
#X obj 92 225 *;
#X obj 39 254 +;
#X obj 39 279 sqrt;
#X floatatom 72 295 5 0 0 0 - - -, f 5;
#X obj 36 46 - 0;
#X obj 36 108 / 0.5;
#X obj 87 47 - 1;
#X obj 87 106 * -1;
#X connect 0 0 16 0;
#X connect 1 0 18 0;
#X connect 2 0 3 0;
#X connect 3 0 7 0;
#X connect 4 0 5 0;
#X connect 5 0 6 0;
#X connect 8 0 4 0;
#X connect 9 0 10 0;
#X connect 9 1 10 1;
#X connect 10 0 13 0;
#X connect 11 0 12 0;
#X connect 11 1 12 1;
#X connect 12 0 13 1;
#X connect 13 0 14 0;
#X connect 14 0 2 0;
#X connect 14 0 15 0;
#X connect 16 0 17 0;
#X connect 17 0 8 0;
#X connect 17 0 9 0;
#X connect 18 0 19 0;
#X connect 19 0 8 1;
#X connect 19 0 11 0;
#X restore 102 244 pd carttopol;
#X text 212 364 \$4 : ampitude pan (0 to 1);
#X text 212 345 \$3 : pan time shift;
#X text 212 309 \$1 : distance to amplitude;
#X text 153 38 with amplidute limitation / doepler effect on movement
/ delay line from left to right / pan;
#X text 292 7 Basic spacialisation (2 HP);
#X obj 25 399 spatialisation~ 1 10 2 0.5;
#N canvas 1152 157 767 700 \$0-pad 0;
#X msg 158 309 clear;
#N canvas 6 50 590 367 clear-all 0;
#X obj 89 46 inlet;
#X obj 89 122 s pd-\$0-work;
#X msg 89 99 clear;
#X obj 89 72 t b;
#X connect 0 0 3 0;
#X connect 2 0 1 0;
#X connect 3 0 2 0;
#X restore 158 331 pd clear-all;
#X obj 92 646 outlet;
#X obj 72 171 loadbang;
#X obj 191 411 metro 50;
#N canvas 581 163 695 660 pointer-parser 0;
#X obj 129 165 pointer;
#X text 276 46 from metro;
#X obj 282 346 t b f;
#X obj 117 49 inlet;
#X obj 237 48 inlet;
#X obj 129 541 outlet;
#X obj 129 398 pack 0 0;
#X obj 129 193 get \$0-xy-pad-knob-1 x0 y0;
#X obj 129 320 change -1;
#X obj 282 325 change -1;
#X obj 129 238 / 90;
#X obj 282 236 / 90;
#X obj 129 420 unpack 0 0;
#X obj 129 442 * 2;
#X obj 129 464 - 1;
#X obj 129 516 pack;
#X obj 169 442 * 2;
#X obj 169 464 - 1;
#X obj 384 202 set \$0-xy-pad-knob-1 x0 y0;
#X obj 384 43 inlet set;
#X obj 384 65 unpack;
#X text 432 67 -1..+1;
#X obj 384 112 + 1;
#X obj 384 134 / 2;
#X obj 384 156 * 90;
#X obj 424 112 + 1;
#X obj 424 134 / 2;
#X floatatom 173 241 5 0 0 0 - - -, f 5;
#X obj 424 156 * 90;
#X connect 0 0 18 2;
#X connect 0 0 7 0;
#X connect 2 0 6 0;
#X connect 2 1 6 1;
#X connect 3 0 0 0;
#X connect 4 0 0 0;
#X connect 6 0 12 0;
#X connect 7 0 10 0;
#X connect 7 0 27 0;
#X connect 7 1 11 0;
#X connect 8 0 6 0;
#X connect 9 0 2 0;
#X connect 10 0 8 0;
#X connect 11 0 9 0;
#X connect 12 0 13 0;
#X connect 12 1 16 0;
#X connect 13 0 14 0;
#X connect 14 0 15 0;
#X connect 15 0 5 0;
#X connect 16 0 17 0;
#X connect 17 0 15 1;
#X connect 19 0 20 0;
#X connect 20 0 22 0;
#X connect 20 1 25 0;
#X connect 22 0 23 0;
#X connect 23 0 24 0;
#X connect 24 0 18 0;
#X connect 25 0 26 0;
#X connect 26 0 28 0;
#X connect 28 0 18 1;
#X restore 72 448 pd pointer-parser;
#N canvas 419 563 751 371 add-controller 0;
#X msg 520 189 traverse \$1 \, bang;
#X obj 520 216 pointer;
#X obj 405 322 outlet;
#X obj 405 21 inlet;
#X obj 405 50 t f b;
#X obj 520 132 symbol pd-\$0-work;
#X obj 405 285 append \$0-xy-pad-knob-1 x0 y0 id;
#X obj 23 35 struct \$0-xy-pad-knob-1 float x0 float y0 float id;
#X obj 22 81 filledpolygon id 999 1 x0(0:90)(0:90) y0(0:90)(0:90) x0(0:90)(10:100)
y0(0:90)(0:90) x0(0:90)(10:100) y0(0:90)(10:100) x0(0:90)(0:90) y0(0:90)(10:100)
;
#X msg 405 261 45 45 \$1;
#X connect 0 0 1 0;
#X connect 1 0 6 3;
#X connect 3 0 4 0;
#X connect 4 0 9 0;
#X connect 4 1 5 0;
#X connect 5 0 0 0;
#X connect 6 0 2 0;
#X connect 9 0 6 0;
#X restore 72 379 pd add-controller;
#X obj 192 391 tgl 15 0 empty empty empty 17 7 0 10 -262144 -1 -1 1
1;
#X msg 193 370 1;
#X obj 72 303 t f b b;
#X text 111 233 5/10 red;
#X text 111 248 3/10 green;
#X text 111 263 2/10 blue;
#X text 522 76 (c) 2010 Thomas Musil;
#X text 521 58 (c) -2010 Frank Barknecht;
#X msg 72 233 900;
#X obj 162 646 outlet;
#X text 486 42 based on: xy-pad;
#N canvas 1444 366 450 300 xy2rphi 0;
#X obj 46 35 inlet x y;
#X obj 46 272 outlet r;
#X obj 136 266 outlet phi;
#X text 244 77 r=sqrt(x^2+y^2);
#X text 246 97 phi=atan2(y \, x);
#X obj 102 106 t f f f;
#X obj 102 129 *;
#X obj 46 169 +;
#X obj 46 106 t f f f;
#X obj 46 129 *;
#X obj 46 201 sqrt;
#X obj 136 157 pack;
#X obj 136 196 atan2;
#X msg 136 177 \$2 \$1;
#X obj 46 61 unpack 0 0;
#X text 147 282 in rad;
#X connect 0 0 14 0;
#X connect 5 0 6 0;
#X connect 5 1 6 1;
#X connect 5 2 11 1;
#X connect 6 0 7 1;
#X connect 7 0 10 0;
#X connect 8 0 9 0;
#X connect 8 1 9 1;
#X connect 8 2 11 0;
#X connect 9 0 7 0;
#X connect 10 0 1 0;
#X connect 11 0 13 0;
#X connect 12 0 2 0;
#X connect 13 0 12 0;
#X connect 14 0 8 0;
#X connect 14 1 5 0;
#X restore 394 485 pd xy2rphi;
#X obj 92 530 t l l;
#X obj 92 552 unpack 0 0;
#X obj 387 102 inlet r;
#X obj 456 103 inlet phi;
#X obj 444 333 t f f;
#X obj 444 357 cos;
#X obj 387 354 t f f;
#X obj 387 390 * 1;
#X obj 417 389 * 0;
#X obj 387 277 unpack 0 0;
#X obj 387 254 pack;
#X obj 456 225 t b f;
#X obj 471 356 sin;
#X obj 387 412 pack;
#X obj 387 204 t f;
#X obj 387 226 clip 0 1;
#X obj 306 117 cnv 10 12 12 empty empty empty 20 12 0 14 -99865 -66577
0;
#N canvas 493 264 450 300 \$0-work 0;
#X scalar 1006-xy-pad-knob-1 90 32 900 \;;
#X coords 0 100 100 0 100 100 1;
#X restore 260 30 pd \$0-work;
#X obj 451 532 wrap;
#X obj 72 193 t b b;
#X obj 608 163 atan2;
#X msg 608 138 1 0;
#X obj 608 185 * 4;
#X obj 608 207 t f f;
#X obj 378 612 s \$0-force;
#X obj 451 632 s \$0-direction;
#X msg 451 554 set \$1;
#X msg 378 564 set \$1;
#X obj 451 507 / 6.28;
#X obj 444 309 * -6.28;
#X obj 394 507 t f f;
#X obj 337 537 s force_wind;
#X obj 160 611 * -1;
#X connect 0 0 1 0;
#X connect 3 0 38 0;
#X connect 4 0 5 1;
#X connect 5 0 19 0;
#X connect 6 0 5 0;
#X connect 7 0 4 0;
#X connect 8 0 7 0;
#X connect 9 0 6 0;
#X connect 9 1 8 0;
#X connect 9 2 0 0;
#X connect 15 0 9 0;
#X connect 18 0 49 0;
#X connect 18 1 47 0;
#X connect 19 0 20 0;
#X connect 19 1 18 0;
#X connect 20 0 2 0;
#X connect 20 1 51 0;
#X connect 21 0 33 0;
#X connect 22 0 30 0;
#X connect 23 0 24 0;
#X connect 23 1 31 0;
#X connect 24 0 26 1;
#X connect 25 0 26 0;
#X connect 25 1 27 0;
#X connect 26 0 32 0;
#X connect 27 0 32 1;
#X connect 28 0 25 0;
#X connect 28 1 48 0;
#X connect 29 0 28 0;
#X connect 30 0 29 0;
#X connect 30 1 29 1;
#X connect 31 0 27 1;
#X connect 32 0 5 2;
#X connect 33 0 34 0;
#X connect 34 0 29 0;
#X connect 37 0 45 0;
#X connect 38 0 15 0;
#X connect 38 1 40 0;
#X connect 39 0 41 0;
#X connect 40 0 39 0;
#X connect 41 0 42 0;
#X connect 42 0 48 1;
#X connect 42 1 47 1;
#X connect 45 0 44 0;
#X connect 46 0 43 0;
#X connect 47 0 37 0;
#X connect 48 0 23 0;
#X connect 49 0 50 0;
#X connect 49 1 46 0;
#X connect 51 0 16 0;
#X coords 0 -1 1 1 100 100 2 260 30;
#X restore 102 114 pd \$0-pad;
#X connect 1 0 2 0;
#X connect 2 0 3 0;
#X connect 3 0 11 0;
#X connect 5 0 11 1;
#X connect 5 1 11 2;
#X connect 11 0 0 0;
#X connect 11 1 0 1;
#X connect 12 0 5 0;
#X connect 12 1 5 1;
