#N canvas 619 269 1128 708 12;
#X obj 51 60 _until;
#X obj 51 88 t f f;
#X obj 58 431 tabwrite part1;
#X obj 112 176 pow 4;
#X obj 52 145 t b f f f;
#X obj 113 201 / 8;
#X obj 98 234 pow 3;
#X obj 99 259 / -3;
#X obj 83 315 / 3;
#X msg 59 341 -0.5;
#X obj 62 371 +;
#X obj 128 353 +;
#X obj 173 294 +;
#X obj 82 290 * 2;
#X obj 247 94 tabread part1;
#X floatatom 249 66 5 0 0 0 - - -;
#X floatatom 246 128 5 0 0 0 - - -;
#X obj 414 63 _until;
#X obj 550 85 t f f;
#X obj 513 187 pow 4;
#X obj 499 245 pow 3;
#X obj 421 451 +;
#X obj 448 415 +;
#X obj 522 303 +;
#X floatatom 612 69 5 0 0 0 - - -;
#X floatatom 609 131 9 0 0 0 - - -;
#X obj 610 97 tabread part2;
#X obj 423 525 tabwrite part2;
#X obj 514 212 / -24;
#X obj 500 270 / 6;
#X obj 415 148 t b f f f f;
#X obj 488 345 +;
#X obj 454 258 pow 2;
#X obj 455 283 / -4;
#X obj 445 333 f;
#X obj 446 358 / 6;
#X msg 422 384 -1;
#X obj 420 412 / 24;
#X obj 99 488 tab_copy part1 all;
#X obj 104 561 tab_copy part2 all;
#X obj 847 428 soundfiler;
#X obj 799 349 textfile;
#X msg 931 125 clear;
#X obj 767 135 _until;
#X obj 767 165 t f f;
#X msg 847 405 write bspline3.wav all;
#X obj 613 213 table all 4000;
#X msg 51 31 2000;
#X obj 50 119 / 2000;
#X msg 414 34 2000;
#X obj 413 122 / 2000;
#X obj 244 34 table part1 2000;
#X obj 607 37 table part2 2000;
#X msg 96 457 0 0 2000;
#X msg 101 530 0 2000 2000;
#X msg 767 110 4000;
#X obj 799 194 tabread all;
#X msg 889 293 write table_spline.txt;
#X obj 59 400 * 2;
#X obj 423 490 * 2;
#X msg 799 223 add2 \$1;
#X connect 0 0 1 0;
#X connect 1 0 48 0;
#X connect 1 1 2 1;
#X connect 3 0 5 0;
#X connect 4 0 9 0;
#X connect 4 1 13 0;
#X connect 4 2 6 0;
#X connect 4 3 3 0;
#X connect 5 0 12 1;
#X connect 6 0 7 0;
#X connect 7 0 12 0;
#X connect 8 0 11 0;
#X connect 9 0 10 0;
#X connect 10 0 58 0;
#X connect 11 0 10 1;
#X connect 12 0 11 1;
#X connect 13 0 8 0;
#X connect 14 0 16 0;
#X connect 15 0 14 0;
#X connect 17 0 18 0;
#X connect 18 0 50 0;
#X connect 18 1 27 1;
#X connect 19 0 28 0;
#X connect 20 0 29 0;
#X connect 21 0 59 0;
#X connect 22 0 21 1;
#X connect 23 0 31 1;
#X connect 24 0 26 0;
#X connect 26 0 25 0;
#X connect 28 0 23 1;
#X connect 29 0 23 0;
#X connect 30 0 36 0;
#X connect 30 1 34 0;
#X connect 30 2 32 0;
#X connect 30 3 20 0;
#X connect 30 4 19 0;
#X connect 31 0 22 1;
#X connect 32 0 33 0;
#X connect 33 0 31 0;
#X connect 34 0 35 0;
#X connect 35 0 22 0;
#X connect 36 0 37 0;
#X connect 37 0 21 0;
#X connect 42 0 41 0;
#X connect 43 0 44 0;
#X connect 44 1 56 0;
#X connect 45 0 40 0;
#X connect 47 0 0 0;
#X connect 48 0 4 0;
#X connect 49 0 17 0;
#X connect 50 0 30 0;
#X connect 53 0 38 0;
#X connect 54 0 39 0;
#X connect 55 0 43 0;
#X connect 56 0 60 0;
#X connect 57 0 41 0;
#X connect 58 0 2 0;
#X connect 59 0 27 0;
#X connect 60 0 41 0;
