#N canvas 238 380 710 498 10;
#X obj 66 34 inlet;
#X obj 81 131 tabread \$1;
#X obj 81 108 - 1;
#X obj 66 62 t f f f f f;
#X obj 150 131 tabread \$1;
#X obj 218 131 tabread \$1;
#X obj 287 131 tabread \$1;
#X obj 218 108 + 1;
#X obj 287 108 + 2;
#X obj 93 191 i;
#X obj 66 166 t f f;
#X obj 66 212 -;
#X obj 203 212 -;
#X obj 203 236 * -0.5;
#X obj 293 178 * -2.5;
#X obj 347 177 * 2;
#X obj 377 177 * -0.5;
#X obj 281 209 +;
#X obj 281 234 +;
#X obj 347 204 +;
#X obj 477 210 +;
#X obj 477 235 +;
#X obj 543 205 +;
#X obj 445 178 * -0.5;
#X obj 489 179 * 1.5;
#X obj 543 178 * -1.5;
#X obj 594 179 * 0.5;
#X obj 66 274 t f f f;
#X obj 105 304 *;
#X obj 105 328 +;
#X obj 85 353 *;
#X obj 85 377 +;
#X obj 66 410 *;
#X obj 66 434 +;
#X obj 66 460 outlet;
#X connect 0 0 3 0;
#X connect 1 0 12 0;
#X connect 1 0 17 0;
#X connect 1 0 23 0;
#X connect 2 0 1 0;
#X connect 3 0 10 0;
#X connect 3 1 2 0;
#X connect 3 2 4 0;
#X connect 3 3 7 0;
#X connect 3 4 8 0;
#X connect 4 0 14 0;
#X connect 4 0 24 0;
#X connect 4 0 33 1;
#X connect 5 0 12 1;
#X connect 5 0 15 0;
#X connect 5 0 25 0;
#X connect 6 0 16 0;
#X connect 6 0 26 0;
#X connect 7 0 5 0;
#X connect 8 0 6 0;
#X connect 9 0 11 1;
#X connect 10 0 11 0;
#X connect 10 1 9 0;
#X connect 11 0 27 0;
#X connect 12 0 13 0;
#X connect 13 0 31 1;
#X connect 14 0 17 1;
#X connect 15 0 19 0;
#X connect 16 0 19 1;
#X connect 17 0 18 0;
#X connect 18 0 29 1;
#X connect 19 0 18 1;
#X connect 20 0 21 0;
#X connect 21 0 28 1;
#X connect 22 0 21 1;
#X connect 23 0 20 0;
#X connect 24 0 20 1;
#X connect 25 0 22 0;
#X connect 26 0 22 1;
#X connect 27 0 32 0;
#X connect 27 1 30 0;
#X connect 27 2 28 0;
#X connect 28 0 29 0;
#X connect 29 0 30 1;
#X connect 30 0 31 0;
#X connect 31 0 32 1;
#X connect 32 0 33 0;
#X connect 33 0 34 0;
