#N canvas 305 70 1111 782 12;
#X obj 70 46 table test 100;
#X obj 72 336 tabread2d~ test 10 10;
#X obj 71 386 oscillo~;
#X obj 91 100 noise~;
#X obj 71 231 *~ 10;
#X obj 72 203 phasor~ 40;
#X obj 393 335 tabread4c~ test;
#X obj 392 386 oscillo~;
#X obj 394 300 *~ 10;
#X floatatom 217 230 5 0 0 0 - - - 0;
#X obj 217 254 i;
#X obj 217 277 sig~;
#X obj 70 73 loadbang;
#X text 331 27 bicubic interpolation of a 2d table;
#X text 415 78 2 : X number of point;
#X text 331 56 arguments : 1 : name of the table;
#X text 415 98 3 : Y number of point;
#X text 327 129 you need at least X*Y number of points in a 1d table;
#X text 326 170 the tabreader loop the values \, so there is no need to add guard point;
#X obj 784 251 tabread2d~ test 10 10;
#X obj 783 291 oscillo~;
#X floatatom 829 114 5 0 0 0 - - - 0;
#X obj 783 120 *~ 3;
#X obj 155 98 bng 20 250 50 0 empty empty empty 0 -10 0 12 #fcfcfc #000000 #000000;
#X floatatom 974 115 5 0 0 0 - - - 0;
#X obj 928 121 *~ 3;
#X obj 782 81 osc~ 20;
#X obj 927 82 osc~ 20.01;
#X text 266 229 <- you can go past 0 .. 9;
#X obj 81 596 tabread2d~ test 10 10;
#X obj 80 646 oscillo~;
#X obj 80 551 *~ 10;
#X obj 81 478 phasor~ 40;
#X obj 402 595 tabread4c~ test;
#X obj 401 646 oscillo~;
#X obj 225 552 sig~ 1;
#X obj 401 567 sig~ 10;
#X obj 715 596 tabread4c~ test;
#X obj 714 647 oscillo~;
#X obj 714 568 sig~ 20;
#X floatatom 225 526 5 1 2 0 - - - 0;
#X text 275 525 <- interpolate between 2 waveforms;
#X obj 70 21 table test2 100;
#X obj 70 125 tabwrite~ test;
#X msg 840 208 size 5 5;
#X msg 825 175 set test2;
#X obj 80 151 tabwrite~ test2;
#X obj 204 149 bng 20 250 50 0 empty empty empty 0 -10 0 12 #fcfcfc #000000 #000000;
#X connect 1 0 2 0;
#X connect 3 0 43 0;
#X connect 3 0 46 0;
#X connect 4 0 1 0;
#X connect 4 0 6 0;
#X connect 5 0 4 0;
#X connect 6 0 7 0;
#X connect 8 0 6 0;
#X connect 9 0 10 0;
#X connect 10 0 11 0;
#X connect 11 0 8 0;
#X connect 11 0 1 1;
#X connect 12 0 43 0;
#X connect 19 0 20 0;
#X connect 21 0 22 1;
#X connect 22 0 19 0;
#X connect 23 0 43 0;
#X connect 24 0 25 1;
#X connect 25 0 19 1;
#X connect 26 0 22 0;
#X connect 27 0 25 0;
#X connect 29 0 30 0;
#X connect 31 0 29 0;
#X connect 31 0 33 0;
#X connect 31 0 37 0;
#X connect 32 0 31 0;
#X connect 33 0 34 0;
#X connect 35 0 29 1;
#X connect 36 0 33 0;
#X connect 37 0 38 0;
#X connect 39 0 37 0;
#X connect 40 0 35 0;
#X connect 44 0 19 0;
#X connect 45 0 19 0;
#X connect 47 0 46 0;
