#N canvas 592 574 305 323 10;
#X obj 28 50 phasor~;
#X obj 28 75 *~ 2;
#X obj 29 106 -~ 1;
#X obj 28 133 abs~;
#X obj 27 165 *~ -1;
#X obj 26 192 +~ 1;
#X obj 26 217 *~;
#X obj 26 242 rzero~ 1;
#X obj 133 61 samplerate~;
#X obj 133 40 loadbang;
#X obj 133 109 /~;
#X obj 133 84 sig~;
#X obj 27 267 *~;
#X obj 133 131 *~ 0.5;
#X obj 133 158 rzero_rev~ 0;
#X obj 27 24 inlet~;
#X obj 28 291 outlet~;
#X connect 0 0 1 0;
#X connect 1 0 2 0;
#X connect 2 0 3 0;
#X connect 2 0 6 1;
#X connect 3 0 4 0;
#X connect 4 0 5 0;
#X connect 5 0 6 0;
#X connect 6 0 7 0;
#X connect 7 0 12 0;
#X connect 8 0 11 0;
#X connect 9 0 8 0;
#X connect 10 0 13 0;
#X connect 11 0 10 0;
#X connect 12 0 16 0;
#X connect 13 0 14 0;
#X connect 14 0 12 1;
#X connect 15 0 0 0;
#X connect 15 0 10 1;
